<svg width="20" height="20" viewBox="0 0 20 20" fill="none" xmlns="http://www.w3.org/2000/svg">
<g filter="url(#filter0_d_1_218)">
<path d="M1 8C1 4.13401 4.13401 1 8 1V1C11.866 1 15 4.13401 15 8V8C15 11.866 11.866 15 8 15V15C4.13401 15 1 11.866 1 8V8Z" fill="white"/>
</g>
<path d="M12.3536 8.35355C12.5488 8.15829 12.5488 7.84171 12.3536 7.64645L9.17157 4.46447C8.97631 4.2692 8.65973 4.2692 8.46447 4.46447C8.2692 4.65973 8.2692 4.97631 8.46447 5.17157L11.2929 8L8.46447 10.8284C8.2692 11.0237 8.2692 11.3403 8.46447 11.5355C8.65973 11.7308 8.97631 11.7308 9.17157 11.5355L12.3536 8.35355ZM4 8.5L12 8.5V7.5L4 7.5V8.5Z" fill="#BBBBBB"/>
<defs>
<filter id="filter0_d_1_218" x="0" y="0" width="20" height="20" filterUnits="userSpaceOnUse" color-interpolation-filters="sRGB">
<feFlood flood-opacity="0" result="BackgroundImageFix"/>
<feColorMatrix in="SourceAlpha" type="matrix" values="0 0 0 0 0 0 0 0 0 0 0 0 0 0 0 0 0 0 127 0" result="hardAlpha"/>
<feOffset dx="2" dy="2"/>
<feGaussianBlur stdDeviation="1.5"/>
<feComposite in2="hardAlpha" operator="out"/>
<feColorMatrix type="matrix" values="0 0 0 0 0.101961 0 0 0 0 0.101961 0 0 0 0 0.196078 0 0 0 0.1 0"/>
<feBlend mode="normal" in2="BackgroundImageFix" result="effect1_dropShadow_1_218"/>
<feBlend mode="normal" in="SourceGraphic" in2="effect1_dropShadow_1_218" result="shape"/>
</filter>
</defs>
</svg>
