<svg width="74" height="21" viewBox="0 0 74 21" fill="none" xmlns="http://www.w3.org/2000/svg">
<g filter="url(#filter0_d_1_194)">
<rect x="1" y="1" width="68" height="15" rx="7.5" fill="#C6F221"/>
</g>
<path d="M17.3425 12.126C16.3945 12.126 15.6115 11.811 14.9935 11.181C14.3755 10.551 14.0665 9.774 14.0665 8.85C14.0665 7.92 14.3755 7.143 14.9935 6.519C15.6115 5.889 16.3945 5.574 17.3425 5.574C17.9125 5.574 18.4375 5.709 18.9175 5.979C19.4035 6.243 19.7815 6.603 20.0515 7.059L18.9805 7.68C18.8245 7.398 18.6025 7.179 18.3145 7.023C18.0265 6.861 17.7025 6.78 17.3425 6.78C16.7305 6.78 16.2355 6.972 15.8575 7.356C15.4855 7.74 15.2995 8.238 15.2995 8.85C15.2995 9.456 15.4855 9.951 15.8575 10.335C16.2355 10.719 16.7305 10.911 17.3425 10.911C17.7025 10.911 18.0265 10.833 18.3145 10.677C18.6085 10.515 18.8305 10.296 18.9805 10.02L20.0515 10.641C19.7815 11.097 19.4065 11.46 18.9265 11.73C18.4465 11.994 17.9185 12.126 17.3425 12.126ZM24.6209 11.442C24.1589 11.898 23.5949 12.126 22.9289 12.126C22.2629 12.126 21.6989 11.898 21.2369 11.442C20.7809 10.98 20.5529 10.416 20.5529 9.75C20.5529 9.084 20.7809 8.523 21.2369 8.067C21.6989 7.605 22.2629 7.374 22.9289 7.374C23.5949 7.374 24.1589 7.605 24.6209 8.067C25.0829 8.523 25.3139 9.084 25.3139 9.75C25.3139 10.416 25.0829 10.98 24.6209 11.442ZM22.0559 10.641C22.2899 10.875 22.5809 10.992 22.9289 10.992C23.2769 10.992 23.5679 10.875 23.8019 10.641C24.0359 10.407 24.1529 10.11 24.1529 9.75C24.1529 9.39 24.0359 9.093 23.8019 8.859C23.5679 8.625 23.2769 8.508 22.9289 8.508C22.5809 8.508 22.2899 8.625 22.0559 8.859C21.8279 9.093 21.7139 9.39 21.7139 9.75C21.7139 10.11 21.8279 10.407 22.0559 10.641ZM29.9632 12H28.6222L27.6502 10.632L26.6692 12H25.3282L26.9752 9.705L25.4002 7.5H26.7412L27.6502 8.769L28.5592 7.5H29.8912L28.3162 9.696L29.9632 12ZM33.1617 7.374C33.7677 7.374 34.2837 7.605 34.7097 8.067C35.1417 8.523 35.3577 9.084 35.3577 9.75C35.3577 10.416 35.1417 10.98 34.7097 11.442C34.2837 11.898 33.7677 12.126 33.1617 12.126C32.5317 12.126 32.0457 11.907 31.7037 11.469V13.8H30.5427V7.5H31.7037V8.031C32.0457 7.593 32.5317 7.374 33.1617 7.374ZM32.0547 10.668C32.2887 10.902 32.5857 11.019 32.9457 11.019C33.3057 11.019 33.6027 10.902 33.8367 10.668C34.0767 10.428 34.1967 10.122 34.1967 9.75C34.1967 9.378 34.0767 9.075 33.8367 8.841C33.6027 8.601 33.3057 8.481 32.9457 8.481C32.5857 8.481 32.2887 8.601 32.0547 8.841C31.8207 9.075 31.7037 9.378 31.7037 9.75C31.7037 10.122 31.8207 10.428 32.0547 10.668ZM39.5965 7.5H40.7575V12H39.5965V11.469C39.2485 11.907 38.7595 12.126 38.1295 12.126C37.5295 12.126 37.0135 11.898 36.5815 11.442C36.1555 10.98 35.9425 10.416 35.9425 9.75C35.9425 9.084 36.1555 8.523 36.5815 8.067C37.0135 7.605 37.5295 7.374 38.1295 7.374C38.7595 7.374 39.2485 7.593 39.5965 8.031V7.5ZM37.4545 10.668C37.6885 10.902 37.9855 11.019 38.3455 11.019C38.7055 11.019 39.0025 10.902 39.2365 10.668C39.4765 10.428 39.5965 10.122 39.5965 9.75C39.5965 9.378 39.4765 9.075 39.2365 8.841C39.0025 8.601 38.7055 8.481 38.3455 8.481C37.9855 8.481 37.6885 8.601 37.4545 8.841C37.2205 9.075 37.1035 9.378 37.1035 9.75C37.1035 10.122 37.2205 10.428 37.4545 10.668ZM44.7623 7.5H45.9233V12H44.7623V10.29H42.9713V12H41.8103V7.5H42.9713V9.201H44.7623V7.5ZM50.2361 7.5H51.1001V12H49.9661V9.444L47.8511 12H46.9871V7.5H48.1211V10.056L50.2361 7.5ZM55.7098 7.5V8.616H54.3058V12H53.1448V8.616H51.7228V7.5H55.7098ZM58.3638 8.94C58.8738 8.94 59.2848 9.081 59.5968 9.363C59.9088 9.639 60.0648 10.008 60.0648 10.47C60.0648 10.932 59.9088 11.304 59.5968 11.586C59.2848 11.862 58.8738 12 58.3638 12H56.3298V7.5H57.4908V8.94H58.3638ZM58.3728 10.974C58.5348 10.974 58.6668 10.929 58.7688 10.839C58.8768 10.743 58.9308 10.62 58.9308 10.47C58.9308 10.32 58.8768 10.197 58.7688 10.101C58.6668 10.005 58.5348 9.957 58.3728 9.957H57.4908V10.974H58.3728Z" fill="white"/>
<defs>
<filter id="filter0_d_1_194" x="0" y="0" width="74" height="21" filterUnits="userSpaceOnUse" color-interpolation-filters="sRGB">
<feFlood flood-opacity="0" result="BackgroundImageFix"/>
<feColorMatrix in="SourceAlpha" type="matrix" values="0 0 0 0 0 0 0 0 0 0 0 0 0 0 0 0 0 0 127 0" result="hardAlpha"/>
<feOffset dx="2" dy="2"/>
<feGaussianBlur stdDeviation="1.5"/>
<feComposite in2="hardAlpha" operator="out"/>
<feColorMatrix type="matrix" values="0 0 0 0 0.101961 0 0 0 0 0.101961 0 0 0 0 0.196078 0 0 0 0.1 0"/>
<feBlend mode="normal" in2="BackgroundImageFix" result="effect1_dropShadow_1_194"/>
<feBlend mode="normal" in="SourceGraphic" in2="effect1_dropShadow_1_194" result="shape"/>
</filter>
</defs>
</svg>
